<svg width="183" height="34" fill="none" xmlns="http://www.w3.org/2000/svg"><path fill-rule="evenodd" clip-rule="evenodd" d="M15.386 3.884c-1.085-.409-1.898-.954-3.932-.954V.136c3.322 0 3.39 1.431 6.71 1.431 3.322 0 3.322-1.43 6.71-1.43v2.861c-2.033 0-2.846.545-3.93.954V6.95c2.778 0 15.385-.886 15.385 10.084 0 10.97-12.607 10.084-15.386 10.084v4.02h3.931V34h-13.42v-2.862h3.932v-4.02C12.606 27.118 0 28.004 0 17.034 0 6.064 12.607 6.95 15.386 6.95V3.884ZM131.76 2.52c7.727.75 13.827 6.95 13.827 14.513 0 8.04-6.914 14.65-15.386 14.65s-15.385-6.542-15.385-14.65c0-7.563 6.032-13.832 13.826-14.513V0h3.118v2.521Zm-92.042 3.27V2.93h13.42v2.862h-3.931v20.1l9.692-15.74c.745-1.226 2.575-4.224 4.609-5.928 1.49-1.226 2.1-1.226 5.219-1.226h5.083V5.86h-3.931v22.485h3.931v2.861H60.254v-2.861h3.932v-20.1l-9.693 15.739c-.677 1.158-2.507 4.156-4.54 5.928-1.492 1.294-2.102 1.294-5.22 1.294H39.65v-2.861h3.931V5.792h-3.863Zm109.325 0V2.93h13.42v2.862h-3.931v9.539h15.047V5.79h-3.931V2.93H183v2.862h-3.931v22.485H183v2.861h-13.42v-2.861h3.931V18.192h-15.047v10.085h3.932v2.861h-13.42v-2.861h3.931V5.792h-3.864Zm-71.573 0V2.93h13.352v2.862h-3.93v9.539h15.046V5.79h-3.931V2.93h13.42v2.862h-3.931v22.485h3.931v2.861h-13.42v-2.861h3.931V18.192H86.891v10.085h3.931v2.861h-13.42v-2.861h3.931V5.792H77.47Zm54.29-.953v6.064h-3.118V4.838c-4.134 1.022-7.32 5.86-7.32 12.196 0 7.154 3.999 12.333 8.947 12.333 4.948 0 8.947-5.247 8.947-12.333-.068-6.337-3.254-11.174-7.456-12.196ZM20.876 24.87c2.846 0 8.946.681 8.946-7.836s-6.168-7.836-8.946-7.836V24.87Zm-5.49-15.672c-2.712 0-8.947-.681-8.947 7.836s6.1 7.836 8.947 7.836V9.198Z" fill="#3F5199"/></svg>